<?xml version="1.0" encoding="UTF-8" standalone="no"?>
<!-- Created with Keyshape -->
<svg xmlns="http://www.w3.org/2000/svg" viewBox="0 0 500 500" fill-rule="evenodd" clip-rule="evenodd" stroke-linecap="round" stroke-linejoin="round" stroke-miterlimit="1.5">
    <defs>
        <symbol id="Symbol-1" preserveAspectRatio="none" width="125.831" height="182.071" viewBox="0 0 125.831 182.071" overflow="visible">
            <g transform="translate(53.891,90.882) translate(-71.4873,-90.6299)">
                <g clip-path="url(#c)" transform="translate(74.8967,88.5127) translate(-176.098,-402.717)">
                    <path d="M199.489,442.207C198.696,441.822,198.587,440.98,199.246,440.329C199.905,439.677,201.084,439.46,201.877,439.844C202.67,440.229,202.779,441.071,202.12,441.722C201.461,442.374,200.282,442.591,199.489,442.207ZM193.191,435.662C192.629,435.164,193.18,434.539,194.421,434.265C195.661,433.992,197.124,434.174,197.685,434.672C198.247,435.169,197.695,435.795,196.455,436.068C195.215,436.341,193.752,436.159,193.191,435.662ZM224.244,411.526C230.417,414.415,234.229,418.877,233.174,422.55C231.877,427.06,223.724,428.682,214.977,426.168C214.047,425.9,213.147,425.597,212.284,425.263C211.735,427.63,210.427,429.294,209.029,429.194C207.325,429.073,206.126,426.379,206.353,423.183C206.378,422.843,206.417,422.511,206.47,422.189C205.798,421.714,205.157,421.195,204.552,420.636C203.948,421.478,203.203,421.961,202.431,421.906C200.883,421.796,199.753,419.564,199.729,416.76C199.398,416.635,199.073,416.494,198.756,416.336C198.825,416.943,198.84,417.591,198.792,418.26C198.565,421.457,196.996,423.953,195.292,423.832C193.588,423.711,192.39,421.017,192.617,417.821C192.773,415.637,193.554,413.78,194.577,412.861C192.719,410.46,191.576,407.297,191.543,403.824C191.47,396.252,196.704,390.053,203.222,389.991C207.052,389.955,210.48,392.046,212.669,395.312C213.495,395.26,214.324,395.307,215.138,395.453C221.554,396.606,225.676,403.592,224.338,411.046C224.309,411.207,224.278,411.366,224.244,411.526ZM167.792,414.659C167.39,414.42,167.913,413.711,168.961,413.079C170.009,412.446,171.187,412.126,171.589,412.366C171.992,412.605,171.468,413.314,170.42,413.947C169.372,414.58,168.195,414.899,167.792,414.659ZM164.243,413.917C163.926,413.644,163.964,413.352,164.327,413.265C164.69,413.178,165.243,413.329,165.56,413.602C165.877,413.875,165.839,414.168,165.476,414.255C165.113,414.341,164.56,414.19,164.243,413.917ZM164.446,412.789C164.22,412.676,164.432,412.217,164.918,411.764C165.404,411.31,165.983,411.033,166.209,411.146C166.435,411.258,166.223,411.717,165.737,412.171C165.251,412.624,164.672,412.901,164.446,412.789ZM167.397,412.535C167.068,412.31,167.249,411.932,167.803,411.691C168.356,411.451,169.073,411.438,169.402,411.663C169.732,411.888,169.55,412.266,168.997,412.506C168.443,412.747,167.727,412.76,167.397,412.535ZM169.299,411.112C168.982,410.839,169.02,410.547,169.383,410.46C169.746,410.373,170.299,410.524,170.616,410.797C170.933,411.07,170.895,411.362,170.532,411.449C170.169,411.536,169.616,411.385,169.299,411.112ZM133.676,393.914C133.333,393.851,133.322,393.228,133.652,392.524C133.981,391.82,134.527,391.299,134.871,391.361C135.214,391.424,135.225,392.047,134.896,392.751C134.566,393.455,134.02,393.976,133.676,393.914ZM134.099,388.204C132.094,386.666,130.592,384.416,129.795,381.8C128.865,382.906,127.766,383.48,126.75,383.241C124.832,382.792,123.933,379.617,124.744,376.157C125.556,372.697,127.772,370.253,129.69,370.703C129.975,370.77,130.238,370.897,130.476,371.076C132.862,365.62,138.117,362.24,143.454,363.199C149.87,364.351,153.992,371.337,152.654,378.791C151.583,384.756,147.336,389.225,142.393,390.18C140.971,391.992,139.318,392.964,137.742,392.681C136.045,392.376,134.77,390.678,134.099,388.204ZM131.109,390.7C130.876,390.48,131.156,389.828,131.733,389.245C132.31,388.662,132.967,388.367,133.2,388.587C133.432,388.806,133.153,389.458,132.576,390.041C131.999,390.624,131.342,390.919,131.109,390.7ZM118.93,382.418C118.798,382.3,118.828,382.061,118.998,381.885C119.167,381.709,119.411,381.662,119.543,381.779C119.675,381.897,119.645,382.136,119.475,382.312C119.306,382.488,119.062,382.536,118.93,382.418ZM120.511,381.936C120.339,381.869,120.609,381.162,121.115,380.356C121.621,379.55,122.171,378.95,122.343,379.016C122.516,379.083,122.245,379.79,121.739,380.596C121.234,381.402,120.683,382.002,120.511,381.936ZM119.074,381.479C118.976,381.459,119.093,381.038,119.335,380.54C119.577,380.042,119.853,379.653,119.951,379.673C120.048,379.693,119.931,380.114,119.689,380.612C119.447,381.11,119.171,381.499,119.074,381.479ZM120.428,380.4C120.288,380.323,120.388,379.975,120.651,379.622C120.914,379.27,121.241,379.046,121.38,379.122C121.52,379.199,121.42,379.548,121.157,379.9C120.894,380.253,120.568,380.477,120.428,380.4ZM121.359,378.724C121.227,378.606,121.257,378.368,121.426,378.191C121.596,378.015,121.84,377.968,121.972,378.086C122.104,378.204,122.073,378.443,121.904,378.619C121.735,378.795,121.49,378.842,121.359,378.724Z" fill="#c62323" transform="translate(176.098,402.717) translate(-176.098,-402.717)"/>
                    <path d="M221.012,393.918C219.26,393.444,217.553,392.816,215.912,392.041C207.676,388.172,202.608,381.582,204.604,377.334C206.599,373.086,214.907,372.778,223.143,376.647C224.02,377.059,224.86,377.501,225.659,377.968C226.577,375.718,228.132,374.282,229.497,374.602C231.16,374.992,231.916,377.842,231.185,380.962C231.107,381.294,231.015,381.616,230.912,381.925C231.501,382.501,232.051,383.115,232.56,383.762C233.29,383.026,234.101,382.668,234.855,382.845C236.366,383.199,237.128,385.582,236.707,388.354C237.014,388.53,237.312,388.721,237.601,388.926C237.629,388.317,237.717,387.675,237.87,387.021C238.601,383.901,240.546,381.685,242.209,382.075C243.872,382.465,244.629,385.315,243.897,388.434C243.397,390.566,242.331,392.276,241.176,393.021C242.629,395.686,243.256,398.99,242.738,402.425C241.609,409.912,235.459,415.202,229.014,414.23C222.568,413.258,218.252,406.389,219.382,398.901C219.64,397.16,220.191,395.475,221.012,393.918Z" fill-rule="evenodd" clip-rule="evenodd" stroke-linecap="round" stroke-linejoin="round" stroke-miterlimit="1.5" fill="#c62323" transform="translate(224.173,394.14) translate(-224.173,-394.14)"/>
                    <path d="M238.179,385.8C239.016,386.247,239.333,387.288,238.887,388.126C238.45,388.969,237.412,389.299,236.569,388.862C235.731,388.415,235.415,387.373,235.861,386.535C236.298,385.692,237.336,385.363,238.179,385.8ZM235.939,371.546C236.862,371.742,236.968,374.927,236.176,378.654C235.385,382.381,233.993,385.247,233.07,385.051C232.147,384.855,232.041,381.67,232.832,377.944C233.624,374.217,235.016,371.35,235.939,371.546ZM239.265,378.111C240.057,378.369,240.264,379.919,239.726,381.572C239.188,383.224,238.108,384.356,237.316,384.098C236.524,383.84,236.317,382.289,236.855,380.637C237.393,378.985,238.473,377.853,239.265,378.111ZM243.454,372.771C243.943,372.806,244.208,374.676,244.045,376.944C243.882,379.212,243.353,381.025,242.863,380.99C242.374,380.954,242.109,379.085,242.272,376.816C242.434,374.548,242.964,372.736,243.454,372.771ZM242.318,368.657C243.155,369.104,243.472,370.145,243.026,370.983C242.589,371.826,241.551,372.156,240.708,371.719C239.87,371.272,239.554,370.23,240,369.392C240.437,368.549,241.475,368.22,242.318,368.657ZM170.18,339.314C171.676,340.139,171.635,343.087,170.088,345.893C168.541,348.699,166.07,350.308,164.574,349.483C163.078,348.659,163.119,345.711,164.667,342.904C166.214,340.098,168.684,338.489,170.18,339.314ZM152.161,326.813C153.867,326.905,155.112,329.578,154.939,332.778C154.766,335.977,153.241,338.501,151.535,338.409C149.829,338.316,148.585,335.644,148.757,332.444C148.93,329.244,150.455,326.721,152.161,326.813ZM215.522,352.713C216.085,353.032,216.215,353.505,215.813,353.767C215.411,354.03,214.628,353.984,214.065,353.664C213.503,353.345,213.372,352.872,213.774,352.61C214.177,352.347,214.96,352.393,215.522,352.713ZM215.257,346.612C215.906,346.849,215.68,348.145,214.753,349.503C213.825,350.862,212.545,351.772,211.895,351.535C211.246,351.298,211.472,350.002,212.4,348.644C213.328,347.285,214.608,346.375,215.257,346.612ZM217.04,349.816C217.589,350.055,217.591,350.713,217.044,351.283C216.497,351.853,215.608,352.122,215.059,351.882C214.51,351.643,214.509,350.985,215.055,350.415C215.602,349.845,216.491,349.576,217.04,349.816ZM220.58,348.394C220.931,348.492,220.944,349.288,220.611,350.169C220.277,351.051,219.721,351.687,219.37,351.588C219.019,351.49,219.005,350.695,219.339,349.813C219.673,348.932,220.229,348.296,220.58,348.394ZM220.149,346.549C220.712,346.869,220.842,347.341,220.44,347.604C220.038,347.866,219.255,347.82,218.692,347.5C218.13,347.181,218,346.708,218.402,346.446C218.804,346.183,219.587,346.229,220.149,346.549ZM170.731,322.39C171.736,322.978,171.425,324.153,170.038,325.013C168.652,325.872,166.71,326.093,165.706,325.505C164.702,324.918,165.012,323.742,166.399,322.883C167.786,322.023,169.727,321.802,170.731,322.39ZM158.88,314.282C160.105,314.611,160.752,315.897,160.322,317.151C159.893,318.404,158.549,319.154,157.323,318.824C156.097,318.494,155.451,317.209,155.88,315.955C156.31,314.701,157.654,313.952,158.88,314.282Z" fill-rule="evenodd" clip-rule="evenodd" stroke-linecap="round" stroke-linejoin="round" stroke-miterlimit="1.5" fill="#c62323" transform="translate(196.417,351.63) translate(-196.417,-351.63)"/>
                    <path d="M154.144,340.999C154.161,340.952,154.179,340.905,154.197,340.858C155.328,337.872,157.706,336.001,159.504,336.682C161.301,337.363,161.842,340.341,160.71,343.327C160.26,344.514,159.614,345.525,158.884,346.269C159.39,346.91,159.7,347.907,159.767,349.083C160.018,349.317,160.26,349.563,160.493,349.82C162.009,348.872,163.505,348.644,164.368,349.378C165.56,350.394,165.129,352.899,163.447,355.189C163.957,356.932,164.166,358.833,164.008,360.801C163.402,368.349,157.634,374.054,151.137,373.532C144.639,373.011,139.856,366.459,140.462,358.911C140.717,355.738,141.883,352.891,143.632,350.696C142.881,349.401,142.579,347.368,142.934,345.177C143.503,341.669,145.543,339.076,147.488,339.392C149.144,339.66,150.2,341.951,150.126,344.791C151.013,342.297,152.677,340.655,154.127,340.995L154.144,340.999Z" fill-rule="evenodd" clip-rule="evenodd" stroke-linecap="round" stroke-linejoin="round" stroke-miterlimit="1.5" fill="#c62323" transform="translate(152.727,355.054) translate(-152.727,-355.054)"/>
                </g>
                <path d="M201.488,491.104L201.451,491.244C200.642,494.201,199.074,496.023,197.952,495.309C196.829,494.595,196.575,491.614,197.384,488.657C197.705,487.481,198.147,486.485,198.633,485.756C198.33,485.107,198.163,484.107,198.156,482.932C198,482.688,197.854,482.438,197.717,482.183C196.724,483.1,195.766,483.299,195.24,482.549C194.512,481.513,194.862,479.022,195.999,476.77C195.717,474.914,195.654,473.031,195.811,471.16C196.422,463.641,200.259,458.06,204.374,458.704C208.489,459.349,211.334,465.976,210.722,473.495C210.465,476.656,209.639,479.474,208.461,481.63C208.9,482.937,209.031,484.971,208.74,487.15C208.273,490.639,206.898,493.186,205.672,492.835C204.627,492.535,204.024,490.23,204.156,487.398C203.517,489.869,202.411,491.475,201.499,491.108L201.488,491.104Z" fill="#c62323" transform="translate(101.63,162.855) translate(-202.832,-477.059)"/>
            </g>
        </symbol>
        <clipPath id="c">
            <path d="M102.505,391.723C92.09,379.235,147.515,368.322,147.515,368.322L141.708,390.388L153.139,390.665L154.17,400.942L168.918,399.286L175.963,410.78L185.192,408.494L193.853,414.068L215.001,396.901C215.001,396.901,221.593,436.004,210.007,443.249C194.094,453.201,112.921,404.211,102.505,391.723Z" transform="translate(159.035,406.448) translate(-159.035,-406.448)"/>
            <path d="M160.145,301.776C142.583,294.464,145.181,371.357,145.181,371.357L177.166,339.808L183.475,347.268L202.472,346.61L208.374,362.718L222.851,360.129L224.407,367.789L232.771,370.349L220.795,406.916C220.795,406.916,276.049,371.331,269.637,367.791C251.978,358.042,176.526,308.596,160.145,301.776Z" transform="translate(207.6,354.101) translate(-207.6,-354.101)"/>
        </clipPath>
        <clipPath id="c-2">
            <path d="M102.505,391.723C92.09,379.235,147.515,368.322,147.515,368.322L141.708,390.388L153.139,390.665L154.17,400.942L168.918,399.286L175.963,410.78L185.192,408.494L193.853,414.068L215.001,396.901C215.001,396.901,221.593,436.004,210.007,443.249C194.094,453.201,112.921,404.211,102.505,391.723Z" transform="translate(159.035,406.448) translate(-159.035,-406.448)"/>
            <path d="M160.145,301.776C142.583,294.464,145.181,371.357,145.181,371.357L177.166,339.808L183.475,347.268L202.472,346.61L208.374,362.718L222.851,360.129L224.407,367.789L232.771,370.349L220.795,406.916C220.795,406.916,276.049,371.331,269.637,367.791C251.978,358.042,176.526,308.596,160.145,301.776Z" transform="translate(207.6,354.101) translate(-207.6,-354.101)"/>
        </clipPath>
        <clipPath id="a">
            <path d="M0,0L500,0L500,500L0,500Z" transform="translate(250,250) translate(-250,-250)"/>
        </clipPath>
    </defs>
    <path fill="none" d="M0,0L500,0L500,500L0,500Z" transform="translate(250,250) translate(-250,-250)"/>
    <g clip-path="url(#a)" transform="translate(155.523,331.818) translate(-155.523,-331.818)">
        <g fill="#c62323" transform="translate(192.293,364.275) translate(-192.293,-364.275)">
            <path d="M-59.648,497.706C-44.5,457.632,25.668,318.018,25.668,318.018C25.668,318.018,105.61,178.072,141.662,162.722C141.662,162.722,132.731,68.995,144.122,49.801C155.514,30.608,207.572,28.637,218.378,48.278C231.631,72.367,223.284,203.672,223.284,203.672L256.948,235.969C256.948,235.969,320.767,153.612,342.335,146.792C363.903,139.971,381.89,188.106,374.512,211.519C359.876,257.959,297.805,258.649,299.514,305.201C300.324,327.256,271.345,412.607,235.466,461.555C211.791,493.854,188.545,617.65,188.545,617.65L-65.149,629.189L-59.648,497.706Z" fill="#fff" stroke="#433333" stroke-width="3.05" transform="translate(155.523,331.818) translate(-155.523,-331.818)"/>
            <ellipse rx="20.188" ry="19.762" fill="#c62323" transform="translate(167.019,241.839)"/>
            <path d="M373.385,212.523C378.592,195.285,374.736,163.705,358.923,169.612C343.109,175.52,284.559,229.679,278.504,247.968C276.369,254.414,302.609,286.282,302.609,286.282C302.609,286.282,305.917,275.066,313.226,269.726C347.075,244.996,364.988,240.322,373.385,212.523ZM210.619,63.147C208.682,46.364,176.592,44.053,166.559,57.645C147.45,83.534,159.579,165.241,159.579,165.241C159.579,165.241,203.712,192.389,206.254,188.389C215.892,173.225,215.954,109.396,210.619,63.147Z" fill="#e5aaaa" transform="translate(265.674,167.55) translate(-265.674,-167.55)"/>
            <path fill="#e5aaaa" stroke="#433333" stroke-linecap="round" stroke-linejoin="round" stroke-miterlimit="1.5" stroke-width="0" d="M-26.019,12.5234C-22.9276,20.7716,-38.8076,65.9044,-60.2048,65.9044C-83.4407,65.9044,-32.8263,51.5234,-42.2048,12.5234C-43.7407,6.1364,-26.8955,-4,-15.2048,-4C-3.51401,-4,-28.1989,6.7072,-26.019,12.5234Z" transform="translate(167.019,336.652) rotate(90) scale(-1,-1) translate(26.019,4)"/>
            <path d="M299.877,305.152C305.225,306.187,307.886,315.721,305.814,326.429C303.742,337.137,297.717,344.991,292.368,343.956C287.019,342.921,284.359,333.387,286.431,322.679C288.503,311.971,294.528,304.117,299.877,305.152Z" fill="#c62323" transform="translate(296.122,324.554) translate(-296.122,-324.554)"/>
            <g id="scary_mouth" display="none" transform="translate(174.259,385.508) translate(-102.425,-110.515)">
                <path d="M219.393,441.517C222.656,430.923,294.979,378.343,272.284,351.791C255.666,332.35,185.086,294.96,170.746,282.421C150.874,265.046,132.939,281.102,122.09,300.367C114.988,312.978,100.779,343.872,100.779,343.872C90.751,358.614,44.579,375.701,94.94,408.988C94.94,408.988,178.125,451.026,197.368,460.478C211.867,467.6,215.599,453.839,219.393,441.517Z" fill="#e09595" transform="translate(102.425,93.7176) translate(-174.259,-368.711)"/>
                <path d="M102.505,391.723C92.09,379.235,147.515,368.322,147.515,368.322L141.708,390.388L153.139,390.665L154.17,400.942L168.918,399.286L175.963,410.78L185.192,408.494L193.853,414.068L215.001,396.901C215.001,396.901,221.593,436.004,210.007,443.249C194.094,453.201,112.921,404.211,102.505,391.723Z" fill="#fff" transform="translate(87.2004,131.454) translate(-159.035,-406.448)"/>
                <path d="M160.145,301.776C142.583,294.464,145.181,371.357,145.181,371.357L177.166,339.808L183.475,347.268L202.472,346.61L208.374,362.718L222.851,360.129L224.407,367.789L232.771,370.349L220.795,406.916C220.795,406.916,276.049,371.331,269.637,367.791C251.978,358.042,176.526,308.596,160.145,301.776Z" fill="#fff" transform="translate(135.766,79.107) translate(-207.6,-354.101)"/>
                <g transform="translate(109.879,129.994) translate(-62.9155,-91.0355)">
                    <g transform="translate(53.891,90.882) translate(-71.4873,-90.6299)">
                        <g clip-path="url(#c-2)" transform="translate(74.8967,88.5127) translate(-176.098,-402.717)">
                            <path d="M199.489,442.207C198.696,441.822,198.587,440.98,199.246,440.329C199.905,439.677,201.084,439.46,201.877,439.844C202.67,440.229,202.779,441.071,202.12,441.722C201.461,442.374,200.282,442.591,199.489,442.207ZM193.191,435.662C192.629,435.164,193.18,434.539,194.421,434.265C195.661,433.992,197.124,434.174,197.685,434.672C198.247,435.169,197.695,435.795,196.455,436.068C195.215,436.341,193.752,436.159,193.191,435.662ZM224.244,411.526C230.417,414.415,234.229,418.877,233.174,422.55C231.877,427.06,223.724,428.682,214.977,426.168C214.047,425.9,213.147,425.597,212.284,425.263C211.735,427.63,210.427,429.294,209.029,429.194C207.325,429.073,206.126,426.379,206.353,423.183C206.378,422.843,206.417,422.511,206.47,422.189C205.798,421.714,205.157,421.195,204.552,420.636C203.948,421.478,203.203,421.961,202.431,421.906C200.883,421.796,199.753,419.564,199.729,416.76C199.398,416.635,199.073,416.494,198.756,416.336C198.825,416.943,198.84,417.591,198.792,418.26C198.565,421.457,196.996,423.953,195.292,423.832C193.588,423.711,192.39,421.017,192.617,417.821C192.773,415.637,193.554,413.78,194.577,412.861C192.719,410.46,191.576,407.297,191.543,403.824C191.47,396.252,196.704,390.053,203.222,389.991C207.052,389.955,210.48,392.046,212.669,395.312C213.495,395.26,214.324,395.307,215.138,395.453C221.554,396.606,225.676,403.592,224.338,411.046C224.309,411.207,224.278,411.366,224.244,411.526ZM167.792,414.659C167.39,414.42,167.913,413.711,168.961,413.079C170.009,412.446,171.187,412.126,171.589,412.366C171.992,412.605,171.468,413.314,170.42,413.947C169.372,414.58,168.195,414.899,167.792,414.659ZM164.243,413.917C163.926,413.644,163.964,413.352,164.327,413.265C164.69,413.178,165.243,413.329,165.56,413.602C165.877,413.875,165.839,414.168,165.476,414.255C165.113,414.341,164.56,414.19,164.243,413.917ZM164.446,412.789C164.22,412.676,164.432,412.217,164.918,411.764C165.404,411.31,165.983,411.033,166.209,411.146C166.435,411.258,166.223,411.717,165.737,412.171C165.251,412.624,164.672,412.901,164.446,412.789ZM167.397,412.535C167.068,412.31,167.249,411.932,167.803,411.691C168.356,411.451,169.073,411.438,169.402,411.663C169.732,411.888,169.55,412.266,168.997,412.506C168.443,412.747,167.727,412.76,167.397,412.535ZM169.299,411.112C168.982,410.839,169.02,410.547,169.383,410.46C169.746,410.373,170.299,410.524,170.616,410.797C170.933,411.07,170.895,411.362,170.532,411.449C170.169,411.536,169.616,411.385,169.299,411.112ZM133.676,393.914C133.333,393.851,133.322,393.228,133.652,392.524C133.981,391.82,134.527,391.299,134.871,391.361C135.214,391.424,135.225,392.047,134.896,392.751C134.566,393.455,134.02,393.976,133.676,393.914ZM134.099,388.204C132.094,386.666,130.592,384.416,129.795,381.8C128.865,382.906,127.766,383.48,126.75,383.241C124.832,382.792,123.933,379.617,124.744,376.157C125.556,372.697,127.772,370.253,129.69,370.703C129.975,370.77,130.238,370.897,130.476,371.076C132.862,365.62,138.117,362.24,143.454,363.199C149.87,364.351,153.992,371.337,152.654,378.791C151.583,384.756,147.336,389.225,142.393,390.18C140.971,391.992,139.318,392.964,137.742,392.681C136.045,392.376,134.77,390.678,134.099,388.204ZM131.109,390.7C130.876,390.48,131.156,389.828,131.733,389.245C132.31,388.662,132.967,388.367,133.2,388.587C133.432,388.806,133.153,389.458,132.576,390.041C131.999,390.624,131.342,390.919,131.109,390.7ZM118.93,382.418C118.798,382.3,118.828,382.061,118.998,381.885C119.167,381.709,119.411,381.662,119.543,381.779C119.675,381.897,119.645,382.136,119.475,382.312C119.306,382.488,119.062,382.536,118.93,382.418ZM120.511,381.936C120.339,381.869,120.609,381.162,121.115,380.356C121.621,379.55,122.171,378.95,122.343,379.016C122.516,379.083,122.245,379.79,121.739,380.596C121.234,381.402,120.683,382.002,120.511,381.936ZM119.074,381.479C118.976,381.459,119.093,381.038,119.335,380.54C119.577,380.042,119.853,379.653,119.951,379.673C120.048,379.693,119.931,380.114,119.689,380.612C119.447,381.11,119.171,381.499,119.074,381.479ZM120.428,380.4C120.288,380.323,120.388,379.975,120.651,379.622C120.914,379.27,121.241,379.046,121.38,379.122C121.52,379.199,121.42,379.548,121.157,379.9C120.894,380.253,120.568,380.477,120.428,380.4ZM121.359,378.724C121.227,378.606,121.257,378.368,121.426,378.191C121.596,378.015,121.84,377.968,121.972,378.086C122.104,378.204,122.073,378.443,121.904,378.619C121.735,378.795,121.49,378.842,121.359,378.724Z" fill="#c62323" transform="translate(176.098,402.717) translate(-176.098,-402.717)"/>
                            <path d="M221.012,393.918C219.26,393.444,217.553,392.816,215.912,392.041C207.676,388.172,202.608,381.582,204.604,377.334C206.599,373.086,214.907,372.778,223.143,376.647C224.02,377.059,224.86,377.501,225.659,377.968C226.577,375.718,228.132,374.282,229.497,374.602C231.16,374.992,231.916,377.842,231.185,380.962C231.107,381.294,231.015,381.616,230.912,381.925C231.501,382.501,232.051,383.115,232.56,383.762C233.29,383.026,234.101,382.668,234.855,382.845C236.366,383.199,237.128,385.582,236.707,388.354C237.014,388.53,237.312,388.721,237.601,388.926C237.629,388.317,237.717,387.675,237.87,387.021C238.601,383.901,240.546,381.685,242.209,382.075C243.872,382.465,244.629,385.315,243.897,388.434C243.397,390.566,242.331,392.276,241.176,393.021C242.629,395.686,243.256,398.99,242.738,402.425C241.609,409.912,235.459,415.202,229.014,414.23C222.568,413.258,218.252,406.389,219.382,398.901C219.64,397.16,220.191,395.475,221.012,393.918Z" fill-rule="evenodd" clip-rule="evenodd" stroke-linecap="round" stroke-linejoin="round" stroke-miterlimit="1.5" fill="#c62323" transform="translate(224.173,394.14) translate(-224.173,-394.14)"/>
                            <path d="M238.179,385.8C239.016,386.247,239.333,387.288,238.887,388.126C238.45,388.969,237.412,389.299,236.569,388.862C235.731,388.415,235.415,387.373,235.861,386.535C236.298,385.692,237.336,385.363,238.179,385.8ZM235.939,371.546C236.862,371.742,236.968,374.927,236.176,378.654C235.385,382.381,233.993,385.247,233.07,385.051C232.147,384.855,232.041,381.67,232.832,377.944C233.624,374.217,235.016,371.35,235.939,371.546ZM239.265,378.111C240.057,378.369,240.264,379.919,239.726,381.572C239.188,383.224,238.108,384.356,237.316,384.098C236.524,383.84,236.317,382.289,236.855,380.637C237.393,378.985,238.473,377.853,239.265,378.111ZM243.454,372.771C243.943,372.806,244.208,374.676,244.045,376.944C243.882,379.212,243.353,381.025,242.863,380.99C242.374,380.954,242.109,379.085,242.272,376.816C242.434,374.548,242.964,372.736,243.454,372.771ZM242.318,368.657C243.155,369.104,243.472,370.145,243.026,370.983C242.589,371.826,241.551,372.156,240.708,371.719C239.87,371.272,239.554,370.23,240,369.392C240.437,368.549,241.475,368.22,242.318,368.657ZM170.18,339.314C171.676,340.139,171.635,343.087,170.088,345.893C168.541,348.699,166.07,350.308,164.574,349.483C163.078,348.659,163.119,345.711,164.667,342.904C166.214,340.098,168.684,338.489,170.18,339.314ZM152.161,326.813C153.867,326.905,155.112,329.578,154.939,332.778C154.766,335.977,153.241,338.501,151.535,338.409C149.829,338.316,148.585,335.644,148.757,332.444C148.93,329.244,150.455,326.721,152.161,326.813ZM215.522,352.713C216.085,353.032,216.215,353.505,215.813,353.767C215.411,354.03,214.628,353.984,214.065,353.664C213.503,353.345,213.372,352.872,213.774,352.61C214.177,352.347,214.96,352.393,215.522,352.713ZM215.257,346.612C215.906,346.849,215.68,348.145,214.753,349.503C213.825,350.862,212.545,351.772,211.895,351.535C211.246,351.298,211.472,350.002,212.4,348.644C213.328,347.285,214.608,346.375,215.257,346.612ZM217.04,349.816C217.589,350.055,217.591,350.713,217.044,351.283C216.497,351.853,215.608,352.122,215.059,351.882C214.51,351.643,214.509,350.985,215.055,350.415C215.602,349.845,216.491,349.576,217.04,349.816ZM220.58,348.394C220.931,348.492,220.944,349.288,220.611,350.169C220.277,351.051,219.721,351.687,219.37,351.588C219.019,351.49,219.005,350.695,219.339,349.813C219.673,348.932,220.229,348.296,220.58,348.394ZM220.149,346.549C220.712,346.869,220.842,347.341,220.44,347.604C220.038,347.866,219.255,347.82,218.692,347.5C218.13,347.181,218,346.708,218.402,346.446C218.804,346.183,219.587,346.229,220.149,346.549ZM170.731,322.39C171.736,322.978,171.425,324.153,170.038,325.013C168.652,325.872,166.71,326.093,165.706,325.505C164.702,324.918,165.012,323.742,166.399,322.883C167.786,322.023,169.727,321.802,170.731,322.39ZM158.88,314.282C160.105,314.611,160.752,315.897,160.322,317.151C159.893,318.404,158.549,319.154,157.323,318.824C156.097,318.494,155.451,317.209,155.88,315.955C156.31,314.701,157.654,313.952,158.88,314.282Z" fill-rule="evenodd" clip-rule="evenodd" stroke-linecap="round" stroke-linejoin="round" stroke-miterlimit="1.5" fill="#c62323" transform="translate(196.417,351.63) translate(-196.417,-351.63)"/>
                            <path d="M154.144,340.999C154.161,340.952,154.179,340.905,154.197,340.858C155.328,337.872,157.706,336.001,159.504,336.682C161.301,337.363,161.842,340.341,160.71,343.327C160.26,344.514,159.614,345.525,158.884,346.269C159.39,346.91,159.7,347.907,159.767,349.083C160.018,349.317,160.26,349.563,160.493,349.82C162.009,348.872,163.505,348.644,164.368,349.378C165.56,350.394,165.129,352.899,163.447,355.189C163.957,356.932,164.166,358.833,164.008,360.801C163.402,368.349,157.634,374.054,151.137,373.532C144.639,373.011,139.856,366.459,140.462,358.911C140.717,355.738,141.883,352.891,143.632,350.696C142.881,349.401,142.579,347.368,142.934,345.177C143.503,341.669,145.543,339.076,147.488,339.392C149.144,339.66,150.2,341.951,150.126,344.791C151.013,342.297,152.677,340.655,154.127,340.995L154.144,340.999Z" fill-rule="evenodd" clip-rule="evenodd" stroke-linecap="round" stroke-linejoin="round" stroke-miterlimit="1.5" fill="#c62323" transform="translate(152.727,355.054) translate(-152.727,-355.054)"/>
                        </g>
                        <path d="M201.488,491.104L201.451,491.244C200.642,494.201,199.074,496.023,197.952,495.309C196.829,494.595,196.575,491.614,197.384,488.657C197.705,487.481,198.147,486.485,198.633,485.756C198.33,485.107,198.163,484.107,198.156,482.932C198,482.688,197.854,482.438,197.717,482.183C196.724,483.1,195.766,483.299,195.24,482.549C194.512,481.513,194.862,479.022,195.999,476.77C195.717,474.914,195.654,473.031,195.811,471.16C196.422,463.641,200.259,458.06,204.374,458.704C208.489,459.349,211.334,465.976,210.722,473.495C210.465,476.656,209.639,479.474,208.461,481.63C208.9,482.937,209.031,484.971,208.74,487.15C208.273,490.639,206.898,493.186,205.672,492.835C204.627,492.535,204.024,490.23,204.156,487.398C203.517,489.869,202.411,491.475,201.499,491.108L201.488,491.104Z" fill="#c62323" transform="translate(101.63,162.855) translate(-202.832,-477.059)"/>
                    </g>
                </g>
            </g>
        </g>
    </g>
</svg>
